<mxfile host="app.diagrams.net" agent="Mozilla/5.0 (Macintosh; Intel Mac OS X 10_15_7) AppleWebKit/537.36 (KHTML, like Gecko) Chrome/136.0.0.0 Safari/537.36" version="26.3.0">
  <diagram name="PÃ¡gina-1" id="kPK58O-aD9MJ9uXtIHEq">
    <mxGraphModel dx="988" dy="3708" grid="0" gridSize="10" guides="1" tooltips="1" connect="1" arrows="1" fold="1" page="1" pageScale="1" pageWidth="1169" pageHeight="827" math="0" shadow="0">
      <root>
        <mxCell id="0" />
        <mxCell id="1" parent="0" />
        <mxCell id="ymEjn9MDPyzt7w7Qxdxl-8" value="&lt;span style=&quot;color: rgb(51, 51, 51); font-family: -webkit-standard; text-align: start; caret-color: rgb(0, 0, 0);&quot;&gt;&lt;font style=&quot;font-size: 12px;&quot;&gt;BreastCareAI Module System Architecture&lt;/font&gt;&lt;/span&gt;" style="shape=umlFrame;whiteSpace=wrap;html=1;pointerEvents=0;recursiveResize=0;container=1;collapsible=0;width=160;" vertex="1" parent="1">
          <mxGeometry x="21" y="-2398" width="830" height="670" as="geometry" />
        </mxCell>
        <mxCell id="ymEjn9MDPyzt7w7Qxdxl-18" value="User Interface&amp;nbsp;&lt;div&gt;(Streamlit)&lt;/div&gt;" style="html=1;dropTarget=0;whiteSpace=wrap;fillColor=#f8cecc;strokeColor=#b85450;" vertex="1" parent="ymEjn9MDPyzt7w7Qxdxl-8">
          <mxGeometry x="60" y="375" width="142.5" height="90" as="geometry" />
        </mxCell>
        <mxCell id="ymEjn9MDPyzt7w7Qxdxl-19" value="" style="shape=module;jettyWidth=8;jettyHeight=4;" vertex="1" parent="ymEjn9MDPyzt7w7Qxdxl-18">
          <mxGeometry x="1" width="20" height="20" relative="1" as="geometry">
            <mxPoint x="-27" y="7" as="offset" />
          </mxGeometry>
        </mxCell>
        <mxCell id="ymEjn9MDPyzt7w7Qxdxl-37" value="&lt;div&gt;&lt;br&gt;&lt;/div&gt;Chat + RAG system&lt;div&gt;Module&lt;/div&gt;" style="html=1;dropTarget=0;whiteSpace=wrap;fillColor=#dae8fc;strokeColor=#6c8ebf;" vertex="1" parent="ymEjn9MDPyzt7w7Qxdxl-8">
          <mxGeometry x="280" y="230" width="142.5" height="90" as="geometry" />
        </mxCell>
        <mxCell id="ymEjn9MDPyzt7w7Qxdxl-38" value="" style="shape=module;jettyWidth=8;jettyHeight=4;" vertex="1" parent="ymEjn9MDPyzt7w7Qxdxl-37">
          <mxGeometry x="1" width="20" height="20" relative="1" as="geometry">
            <mxPoint x="-27" y="7" as="offset" />
          </mxGeometry>
        </mxCell>
        <mxCell id="ymEjn9MDPyzt7w7Qxdxl-39" value="" style="endArrow=classic;startArrow=classic;html=1;rounded=0;entryX=0;entryY=0.5;entryDx=0;entryDy=0;exitX=1;exitY=0;exitDx=0;exitDy=0;" edge="1" parent="ymEjn9MDPyzt7w7Qxdxl-8" source="ymEjn9MDPyzt7w7Qxdxl-18" target="ymEjn9MDPyzt7w7Qxdxl-37">
          <mxGeometry width="50" height="50" relative="1" as="geometry">
            <mxPoint x="130" y="375" as="sourcePoint" />
            <mxPoint x="180" y="325" as="targetPoint" />
          </mxGeometry>
        </mxCell>
        <mxCell id="ymEjn9MDPyzt7w7Qxdxl-40" value="&lt;div&gt;&lt;br&gt;&lt;/div&gt;Ultrasound Segmentation&lt;div&gt;Module&lt;/div&gt;" style="html=1;dropTarget=0;whiteSpace=wrap;fillColor=#e1d5e7;strokeColor=#9673a6;" vertex="1" parent="ymEjn9MDPyzt7w7Qxdxl-8">
          <mxGeometry x="280" y="330" width="142.5" height="90" as="geometry" />
        </mxCell>
        <mxCell id="ymEjn9MDPyzt7w7Qxdxl-41" value="" style="shape=module;jettyWidth=8;jettyHeight=4;" vertex="1" parent="ymEjn9MDPyzt7w7Qxdxl-40">
          <mxGeometry x="1" width="20" height="20" relative="1" as="geometry">
            <mxPoint x="-27" y="7" as="offset" />
          </mxGeometry>
        </mxCell>
        <mxCell id="ymEjn9MDPyzt7w7Qxdxl-42" value="" style="endArrow=classic;startArrow=classic;html=1;rounded=0;exitX=1;exitY=0.25;exitDx=0;exitDy=0;entryX=0;entryY=0.5;entryDx=0;entryDy=0;" edge="1" parent="ymEjn9MDPyzt7w7Qxdxl-8" source="ymEjn9MDPyzt7w7Qxdxl-18" target="ymEjn9MDPyzt7w7Qxdxl-40">
          <mxGeometry width="50" height="50" relative="1" as="geometry">
            <mxPoint x="180" y="330" as="sourcePoint" />
            <mxPoint x="230" y="280" as="targetPoint" />
          </mxGeometry>
        </mxCell>
        <mxCell id="ymEjn9MDPyzt7w7Qxdxl-43" value="Appointments Reminders Module" style="html=1;dropTarget=0;whiteSpace=wrap;fillColor=#d5e8d4;strokeColor=#82b366;" vertex="1" parent="ymEjn9MDPyzt7w7Qxdxl-8">
          <mxGeometry x="280" y="430" width="142.5" height="90" as="geometry" />
        </mxCell>
        <mxCell id="ymEjn9MDPyzt7w7Qxdxl-44" value="" style="shape=module;jettyWidth=8;jettyHeight=4;" vertex="1" parent="ymEjn9MDPyzt7w7Qxdxl-43">
          <mxGeometry x="1" width="20" height="20" relative="1" as="geometry">
            <mxPoint x="-27" y="7" as="offset" />
          </mxGeometry>
        </mxCell>
        <mxCell id="ymEjn9MDPyzt7w7Qxdxl-45" value="" style="endArrow=classic;startArrow=classic;html=1;rounded=0;entryX=0;entryY=0.5;entryDx=0;entryDy=0;exitX=1;exitY=0.75;exitDx=0;exitDy=0;" edge="1" parent="ymEjn9MDPyzt7w7Qxdxl-8" source="ymEjn9MDPyzt7w7Qxdxl-18" target="ymEjn9MDPyzt7w7Qxdxl-43">
          <mxGeometry width="50" height="50" relative="1" as="geometry">
            <mxPoint x="170" y="465" as="sourcePoint" />
            <mxPoint x="260" y="550" as="targetPoint" />
          </mxGeometry>
        </mxCell>
        <mxCell id="ymEjn9MDPyzt7w7Qxdxl-46" value="&lt;div&gt;Web Scraper&lt;/div&gt;&lt;div&gt;Module&lt;/div&gt;" style="html=1;dropTarget=0;whiteSpace=wrap;fillColor=#f5f5f5;strokeColor=#666666;fontColor=#333333;" vertex="1" parent="ymEjn9MDPyzt7w7Qxdxl-8">
          <mxGeometry x="450" y="230" width="142.5" height="90" as="geometry" />
        </mxCell>
        <mxCell id="ymEjn9MDPyzt7w7Qxdxl-47" value="" style="shape=module;jettyWidth=8;jettyHeight=4;" vertex="1" parent="ymEjn9MDPyzt7w7Qxdxl-46">
          <mxGeometry x="1" width="20" height="20" relative="1" as="geometry">
            <mxPoint x="-27" y="7" as="offset" />
          </mxGeometry>
        </mxCell>
        <mxCell id="ymEjn9MDPyzt7w7Qxdxl-50" value="&lt;div&gt;&lt;br class=&quot;Apple-interchange-newline&quot;&gt;Glossary&lt;div&gt;Module&lt;/div&gt;&lt;/div&gt;" style="html=1;dropTarget=0;whiteSpace=wrap;fillColor=#dae8fc;strokeColor=#6c8ebf;" vertex="1" parent="ymEjn9MDPyzt7w7Qxdxl-8">
          <mxGeometry x="450" y="30" width="142.5" height="90" as="geometry" />
        </mxCell>
        <mxCell id="ymEjn9MDPyzt7w7Qxdxl-51" value="" style="shape=module;jettyWidth=8;jettyHeight=4;" vertex="1" parent="ymEjn9MDPyzt7w7Qxdxl-50">
          <mxGeometry x="1" width="20" height="20" relative="1" as="geometry">
            <mxPoint x="-27" y="7" as="offset" />
          </mxGeometry>
        </mxCell>
        <mxCell id="ymEjn9MDPyzt7w7Qxdxl-52" value="" style="endArrow=classic;html=1;rounded=0;exitX=0;exitY=0.5;exitDx=0;exitDy=0;entryX=1;entryY=0.5;entryDx=0;entryDy=0;" edge="1" parent="ymEjn9MDPyzt7w7Qxdxl-8" source="ymEjn9MDPyzt7w7Qxdxl-46" target="ymEjn9MDPyzt7w7Qxdxl-37">
          <mxGeometry width="50" height="50" relative="1" as="geometry">
            <mxPoint x="768.75" y="140" as="sourcePoint" />
            <mxPoint x="670" y="295" as="targetPoint" />
          </mxGeometry>
        </mxCell>
        <mxCell id="ymEjn9MDPyzt7w7Qxdxl-53" value="&lt;div&gt;&lt;br&gt;&lt;/div&gt;&lt;div&gt;&lt;span style=&quot;background-color: transparent; color: light-dark(rgb(51, 51, 51), rgb(193, 193, 193));&quot;&gt;TTS &amp;amp; STT&lt;/span&gt;&lt;/div&gt;&lt;div&gt;&lt;span style=&quot;background-color: transparent; color: light-dark(rgb(51, 51, 51), rgb(193, 193, 193));&quot;&gt;Module&lt;/span&gt;&lt;/div&gt;" style="html=1;dropTarget=0;whiteSpace=wrap;fillColor=#f5f5f5;strokeColor=#666666;fontColor=#333333;" vertex="1" parent="ymEjn9MDPyzt7w7Qxdxl-8">
          <mxGeometry x="450" y="130" width="142.5" height="90" as="geometry" />
        </mxCell>
        <mxCell id="ymEjn9MDPyzt7w7Qxdxl-54" value="" style="shape=module;jettyWidth=8;jettyHeight=4;" vertex="1" parent="ymEjn9MDPyzt7w7Qxdxl-53">
          <mxGeometry x="1" width="20" height="20" relative="1" as="geometry">
            <mxPoint x="-27" y="7" as="offset" />
          </mxGeometry>
        </mxCell>
        <mxCell id="ymEjn9MDPyzt7w7Qxdxl-55" value="" style="endArrow=classic;startArrow=classic;html=1;rounded=0;exitX=0.75;exitY=0;exitDx=0;exitDy=0;entryX=0;entryY=0.75;entryDx=0;entryDy=0;" edge="1" parent="ymEjn9MDPyzt7w7Qxdxl-8" source="ymEjn9MDPyzt7w7Qxdxl-37" target="ymEjn9MDPyzt7w7Qxdxl-53">
          <mxGeometry width="50" height="50" relative="1" as="geometry">
            <mxPoint x="400" y="210" as="sourcePoint" />
            <mxPoint x="450" y="160" as="targetPoint" />
          </mxGeometry>
        </mxCell>
        <mxCell id="ymEjn9MDPyzt7w7Qxdxl-56" value="&lt;div&gt;BI-RADS Classifier&lt;/div&gt;&lt;div&gt;Module&lt;/div&gt;" style="html=1;dropTarget=0;whiteSpace=wrap;fillColor=#e1d5e7;strokeColor=#9673a6;" vertex="1" parent="ymEjn9MDPyzt7w7Qxdxl-8">
          <mxGeometry x="450" y="330" width="142.5" height="90" as="geometry" />
        </mxCell>
        <mxCell id="ymEjn9MDPyzt7w7Qxdxl-57" value="" style="shape=module;jettyWidth=8;jettyHeight=4;" vertex="1" parent="ymEjn9MDPyzt7w7Qxdxl-56">
          <mxGeometry x="1" width="20" height="20" relative="1" as="geometry">
            <mxPoint x="-27" y="7" as="offset" />
          </mxGeometry>
        </mxCell>
        <mxCell id="ymEjn9MDPyzt7w7Qxdxl-58" value="" style="endArrow=classic;html=1;rounded=0;exitX=1;exitY=0.5;exitDx=0;exitDy=0;entryX=0;entryY=0.5;entryDx=0;entryDy=0;" edge="1" parent="ymEjn9MDPyzt7w7Qxdxl-8" source="ymEjn9MDPyzt7w7Qxdxl-40" target="ymEjn9MDPyzt7w7Qxdxl-56">
          <mxGeometry width="50" height="50" relative="1" as="geometry">
            <mxPoint x="670" y="390" as="sourcePoint" />
            <mxPoint x="720" y="340" as="targetPoint" />
          </mxGeometry>
        </mxCell>
        <mxCell id="ymEjn9MDPyzt7w7Qxdxl-59" value="&lt;div&gt;&lt;span style=&quot;background-color: transparent; color: light-dark(rgb(0, 0, 0), rgb(255, 255, 255));&quot;&gt;Vision Explainer&lt;/span&gt;&lt;/div&gt;&lt;div&gt;&lt;span style=&quot;background-color: transparent; color: light-dark(rgb(0, 0, 0), rgb(255, 255, 255));&quot;&gt;Module&lt;/span&gt;&lt;/div&gt;" style="html=1;dropTarget=0;whiteSpace=wrap;fillColor=#e1d5e7;strokeColor=#9673a6;" vertex="1" parent="ymEjn9MDPyzt7w7Qxdxl-8">
          <mxGeometry x="624.5" y="330" width="142.5" height="90" as="geometry" />
        </mxCell>
        <mxCell id="ymEjn9MDPyzt7w7Qxdxl-60" value="" style="shape=module;jettyWidth=8;jettyHeight=4;" vertex="1" parent="ymEjn9MDPyzt7w7Qxdxl-59">
          <mxGeometry x="1" width="20" height="20" relative="1" as="geometry">
            <mxPoint x="-27" y="7" as="offset" />
          </mxGeometry>
        </mxCell>
        <mxCell id="ymEjn9MDPyzt7w7Qxdxl-61" value="" style="endArrow=classic;html=1;rounded=0;exitX=1;exitY=0.5;exitDx=0;exitDy=0;entryX=0;entryY=0.5;entryDx=0;entryDy=0;" edge="1" parent="ymEjn9MDPyzt7w7Qxdxl-8" source="ymEjn9MDPyzt7w7Qxdxl-56" target="ymEjn9MDPyzt7w7Qxdxl-59">
          <mxGeometry width="50" height="50" relative="1" as="geometry">
            <mxPoint x="620" y="380" as="sourcePoint" />
            <mxPoint x="670" y="330" as="targetPoint" />
          </mxGeometry>
        </mxCell>
        <mxCell id="ymEjn9MDPyzt7w7Qxdxl-62" value="Medications Reminders Module" style="html=1;dropTarget=0;whiteSpace=wrap;fillColor=#d5e8d4;strokeColor=#82b366;" vertex="1" parent="ymEjn9MDPyzt7w7Qxdxl-8">
          <mxGeometry x="280" y="526" width="142.5" height="90" as="geometry" />
        </mxCell>
        <mxCell id="ymEjn9MDPyzt7w7Qxdxl-63" value="" style="shape=module;jettyWidth=8;jettyHeight=4;" vertex="1" parent="ymEjn9MDPyzt7w7Qxdxl-62">
          <mxGeometry x="1" width="20" height="20" relative="1" as="geometry">
            <mxPoint x="-27" y="7" as="offset" />
          </mxGeometry>
        </mxCell>
        <mxCell id="ymEjn9MDPyzt7w7Qxdxl-64" value="" style="endArrow=classic;startArrow=classic;html=1;rounded=0;entryX=0.75;entryY=1;entryDx=0;entryDy=0;exitX=0;exitY=0.5;exitDx=0;exitDy=0;" edge="1" parent="ymEjn9MDPyzt7w7Qxdxl-8" source="ymEjn9MDPyzt7w7Qxdxl-62" target="ymEjn9MDPyzt7w7Qxdxl-18">
          <mxGeometry width="50" height="50" relative="1" as="geometry">
            <mxPoint x="160" y="550" as="sourcePoint" />
            <mxPoint x="210" y="500" as="targetPoint" />
          </mxGeometry>
        </mxCell>
        <mxCell id="ymEjn9MDPyzt7w7Qxdxl-65" value="" style="endArrow=classic;html=1;rounded=0;entryX=0.5;entryY=1;entryDx=0;entryDy=0;" edge="1" parent="ymEjn9MDPyzt7w7Qxdxl-8" target="ymEjn9MDPyzt7w7Qxdxl-18">
          <mxGeometry width="50" height="50" relative="1" as="geometry">
            <mxPoint x="700" y="420" as="sourcePoint" />
            <mxPoint x="750" y="370" as="targetPoint" />
            <Array as="points">
              <mxPoint x="700" y="650" />
              <mxPoint x="131" y="650" />
            </Array>
          </mxGeometry>
        </mxCell>
        <mxCell id="ymEjn9MDPyzt7w7Qxdxl-66" value="" style="endArrow=classic;html=1;rounded=0;exitX=0.5;exitY=0;exitDx=0;exitDy=0;entryX=0;entryY=0.75;entryDx=0;entryDy=0;" edge="1" parent="ymEjn9MDPyzt7w7Qxdxl-8" source="ymEjn9MDPyzt7w7Qxdxl-37" target="ymEjn9MDPyzt7w7Qxdxl-50">
          <mxGeometry width="50" height="50" relative="1" as="geometry">
            <mxPoint x="340" y="220" as="sourcePoint" />
            <mxPoint x="390" y="170" as="targetPoint" />
          </mxGeometry>
        </mxCell>
        <mxCell id="ymEjn9MDPyzt7w7Qxdxl-67" value="" style="endArrow=classic;html=1;rounded=0;exitX=0;exitY=0.5;exitDx=0;exitDy=0;entryX=0.5;entryY=0;entryDx=0;entryDy=0;" edge="1" parent="ymEjn9MDPyzt7w7Qxdxl-8" source="ymEjn9MDPyzt7w7Qxdxl-50" target="ymEjn9MDPyzt7w7Qxdxl-18">
          <mxGeometry width="50" height="50" relative="1" as="geometry">
            <mxPoint x="360" y="120" as="sourcePoint" />
            <mxPoint x="410" y="70" as="targetPoint" />
            <Array as="points">
              <mxPoint x="131" y="75" />
            </Array>
          </mxGeometry>
        </mxCell>
        <mxCell id="ymEjn9MDPyzt7w7Qxdxl-68" value="" style="endArrow=classic;startArrow=classic;html=1;rounded=0;entryX=0;entryY=0.5;entryDx=0;entryDy=0;exitX=0.75;exitY=0;exitDx=0;exitDy=0;" edge="1" parent="ymEjn9MDPyzt7w7Qxdxl-8" source="ymEjn9MDPyzt7w7Qxdxl-18" target="ymEjn9MDPyzt7w7Qxdxl-53">
          <mxGeometry width="50" height="50" relative="1" as="geometry">
            <mxPoint x="190" y="250" as="sourcePoint" />
            <mxPoint x="240" y="200" as="targetPoint" />
            <Array as="points">
              <mxPoint x="167" y="175" />
            </Array>
          </mxGeometry>
        </mxCell>
      </root>
    </mxGraphModel>
  </diagram>
</mxfile>
